<svg width="2229" height="160" fill="none" xmlns="http://www.w3.org/2000/svg">
<path d="M2220.41 135.494C2221.27 136.374 2222.12 137.2 2222.99 138.054C2221.69 138.907 2220.41 139.774 2219.12 140.614C2219.55 138.907 2219.97 137.214 2220.41 135.494ZM2006.24 112.494C2006.68 112.494 2007.11 112.494 2007.53 112.494C2007.53 113.774 2007.53 115.067 2007.53 116.334C2005.81 116.334 2004.09 116.334 2002.37 116.334C2003.39 114.867 2004.68 112.44 2006.24 112.494ZM32.293 99.0669C32.7196 99.7069 33.1462 100.347 33.5862 100.987C33.5862 99.7069 33.5862 98.4269 33.5862 97.1602C32.7195 97.1602 31.8531 97.1602 30.9997 97.1602C31.4264 97.8002 31.8663 98.4269 32.293 99.0669ZM27.1331 84.3735C27.5597 85.6535 27.9863 86.9335 28.4263 88.2002C27.5596 88.2002 26.6932 88.2002 25.8398 88.2002C26.2665 86.9335 26.6931 85.6535 27.1331 84.3735ZM77.4398 77.9735C78.3065 78.4002 79.1596 78.8269 80.0263 79.2535C79.5996 80.1069 79.1597 80.9602 78.7331 81.8136C77.8797 81.3869 77.013 80.9602 76.1596 80.5335C76.5863 79.6802 77.0132 78.8268 77.4398 77.9735ZM43.9065 77.9735C47.4132 79.1735 51.2532 80.7202 51.6398 84.3735C46.9465 85.3202 43.9198 82.7468 43.9065 77.9735ZM85.1862 76.7068C85.9729 79.2268 86.893 82.4802 83.893 83.0936C84.3196 80.9602 84.7595 78.8268 85.1862 76.7068ZM0.0398398 75.4269C0.0398398 75.8536 0.0398398 76.2802 0.0398398 76.7068C1.33317 76.2802 2.61317 75.8536 3.90651 75.4269C2.61317 75.0002 1.33317 74.5736 0.0398398 74.1469C0.0398398 74.5736 0.0398398 75.0002 0.0398398 75.4269ZM284.52 72.2269C285.16 72.4402 285.813 72.6535 286.453 72.8669C285.16 72.4402 283.866 72.0135 282.586 71.5869C283.226 71.8002 283.866 72.0136 284.52 72.2269ZM96.7997 69.0269C102.453 69.6936 103.133 79.1068 96.7997 77.9735C96.7997 75.0002 96.7997 72.0136 96.7997 69.0269ZM230.973 69.6669C230.973 70.3069 230.973 70.9469 230.973 71.5869C231.84 71.5869 232.693 71.5869 233.56 71.5869C232.693 70.3069 231.84 69.0269 230.973 67.7602C230.973 68.4002 230.973 69.0269 230.973 69.6669ZM200.013 67.7602C201.706 67.7869 202.08 71.0669 202.586 72.8669C200.44 73.2935 198.293 73.7202 196.146 74.1469C197.093 71.9736 198.253 67.8536 200.013 67.7602ZM1633.37 66.4802C1634.25 67.7469 1635.11 69.0268 1635.96 70.3068C1634.25 70.7335 1632.52 71.1602 1630.8 71.5869C1631.67 69.8802 1632.52 68.1869 1633.37 66.4802ZM1540.49 68.4002C1541.35 69.0269 1542.21 69.6668 1543.08 70.3068C1542.67 67.4935 1540.73 65.9069 1537.92 66.4802C1538.77 67.1202 1539.63 67.7602 1540.49 68.4002ZM333.546 68.4002C333.333 69.0269 333.12 69.6668 332.893 70.3068C334.186 69.8802 335.48 69.4536 336.773 69.0269C335.906 68.1869 335.053 67.3336 334.186 66.4802C333.973 67.1202 333.759 67.7602 333.546 68.4002ZM242.586 67.7602C242.586 68.1869 242.586 68.6002 242.586 69.0269C241.293 69.0269 240 69.0269 238.72 69.0269C238.72 70.7336 238.72 72.4402 238.72 74.1469C243.48 75.3602 245.426 70.8002 246.453 66.4802C245.173 66.4802 243.88 66.4802 242.586 66.4802C242.586 66.9069 242.586 67.3336 242.586 67.7602ZM354.186 66.4802C353.973 66.9069 353.759 67.3336 353.546 67.7602C354.826 67.7602 356.119 67.7602 357.413 67.7602C356.546 66.9069 355.693 66.0535 354.826 65.2002C354.613 65.6269 354.4 66.0536 354.186 66.4802ZM298.066 63.9202C299.36 63.9202 300.64 63.9202 301.933 63.9202C301.933 64.7735 301.933 65.6269 301.933 66.4802C300.64 66.4802 299.36 66.4802 298.066 66.4802C298.066 65.6269 298.066 64.7735 298.066 63.9202ZM270.973 65.8402C267.293 67.6135 266.893 68.9069 267.106 71.5869C271.786 67.7335 277.44 64.1736 282.586 67.7602C282.586 66.4802 282.586 65.2002 282.586 63.9202C278.573 63.8402 274.786 63.8002 270.973 65.8402ZM231.626 65.2002C231.4 65.6269 231.186 66.0536 230.973 66.4802C233.12 66.9069 235.28 67.3336 237.426 67.7602C237.426 66.4802 237.426 65.2002 237.426 63.9202C235.466 63.9469 232.373 63.6002 231.626 65.2002ZM169.053 63.9202C170.333 64.3469 171.626 64.7735 172.92 65.2002C172.493 66.0535 172.053 66.9069 171.626 67.7602C170.76 66.4802 169.906 65.2002 169.053 63.9202ZM105.186 65.2002C106.253 65.6269 107.333 66.0536 108.413 66.4802C105.826 66.4802 103.253 66.4802 100.666 66.4802C101.426 64.5869 102.12 63.9335 105.186 65.2002ZM375.479 62.0002C375.906 62.2135 376.333 62.4268 376.76 62.6402C375.906 62.2135 375.04 61.7869 374.186 61.3602C374.613 61.5736 375.039 61.7869 375.479 62.0002ZM89.0529 61.3602C90.3462 61.3602 91.6397 61.3602 92.9331 61.3602C92.9331 62.2136 92.9331 63.0669 92.9331 63.9202C91.6397 63.0669 90.3462 62.2136 89.0529 61.3602ZM312.253 62.0002C311.826 62.6402 311.4 63.2802 310.96 63.9202C315.346 66.4935 321.186 71.0535 325.16 70.3068C325.16 69.4535 325.16 68.6002 325.16 67.7602C326.88 68.1736 328.6 68.6136 330.32 69.0269C329.893 67.3336 329.453 65.6269 329.026 63.9202C323.093 70.0002 317.76 54.8669 312.253 62.0002ZM349.666 62.0002C349.64 65.0269 350.386 65.7202 352.253 66.4802C352.253 63.9202 352.253 61.3602 352.253 58.8002C351.386 58.8002 350.533 58.8002 349.666 58.8002C349.666 59.8669 349.666 60.9335 349.666 62.0002ZM233.56 60.0802C233.56 60.5069 233.56 60.9336 233.56 61.3602C234.84 61.3602 236.133 61.3602 237.426 61.3602C236.133 60.5069 234.84 59.6535 233.56 58.8002C233.56 59.2269 233.56 59.6536 233.56 60.0802ZM112.279 55.6136C112.706 55.8269 113.147 56.0402 113.573 56.2535C112.707 55.8269 111.853 55.4002 110.986 54.9735C111.426 55.1869 111.853 55.4002 112.279 55.6136ZM1527.59 53.6936C1528.03 53.6936 1528.45 53.6936 1528.88 53.6936C1525.49 56.6002 1528.04 61.8935 1522.43 63.9202C1519.76 62.0935 1525.6 53.8136 1527.59 53.6936ZM337.413 52.4136C337.199 52.8402 336.986 53.2669 336.773 53.6936C337.626 53.6936 338.493 53.6936 339.346 53.6936C338.919 52.8402 338.493 51.9869 338.053 51.1335C337.84 51.5602 337.626 51.9869 337.413 52.4136ZM78.7331 53.6936C75.9731 56.8269 68.9861 55.4535 64.5461 54.9735C64.9728 57.1069 65.3998 59.2269 65.8398 61.3602C61.2532 62.1736 59.213 55.8535 54.2263 58.8002C54.653 60.5069 55.0795 62.2135 55.5195 63.9202C47.2395 60.0802 43.7728 76.4002 38.7461 76.7068C39.1728 70.3068 39.5996 63.9202 40.0263 57.5335C34.293 58.1202 35.8265 66.7736 27.7732 63.2802C18.1598 60.4669 9.99984 68.6269 0.0398398 66.4802C-0.253494 68.9602 1.01317 68.9602 5.83984 69.6669C20.2532 71.1069 1.91974 78.3469 5.19974 85.6535C5.41307 81.8402 7.87953 79.7735 11.6529 80.5335C11.2795 85.0269 11.8395 89.5468 15.5195 92.0402C12.0795 91.6135 8.63973 91.1869 5.19974 90.7602C7.87974 92.4269 7.5063 95.5602 6.49296 98.4269C14.2396 101.014 18.4262 90.1735 23.2529 102.267C20.3329 97.0802 26.4265 89.8935 29.7065 86.9335C31.9465 84.8402 40.2396 88.5069 40.0263 83.0936C42.6396 85.3336 47.1728 87.8402 46.4794 90.7602C45.1861 90.7602 43.9061 90.7602 42.6128 90.7602C44.1861 99.4269 52.7195 98.9469 59.3862 95.8802C58.5195 93.3202 57.6664 90.7602 56.7997 88.2002C60.7331 87.6269 67.0398 87.6269 65.8398 83.0936C69.2798 83.0936 72.7196 83.0936 76.1596 83.0936C74.573 87.7869 83.6128 89.6536 86.4794 89.4802C84.1194 88.9202 83.6263 86.6802 83.893 84.3735C86.8263 83.6268 88.6128 88.0936 90.3461 90.7602C93.1728 85.9869 100.893 85.8935 105.826 88.2002C105.4 85.6535 104.973 83.0935 104.533 80.5335C108.013 84.5735 112.28 87.8935 117.44 86.9335C117.44 84.3735 117.44 81.8135 117.44 79.2535C119.587 79.2535 121.746 79.2535 123.893 79.2535C124.32 69.6269 113.786 70.4002 108.413 63.9202C112.239 63.7602 117.16 63.4936 117.44 67.7602C118.307 66.9069 119.16 66.0535 120.026 65.2002C116.8 61.3869 112.573 57.7869 108.413 61.3602C108.413 59.2269 108.413 57.1069 108.413 54.9735C108.146 58.7335 105.72 61.1069 101.96 61.3602C102.813 58.8002 103.68 56.2536 104.533 53.6936C101.12 52.9202 98.7197 55.9202 96.7997 58.8002C95.0531 52.2535 83.5731 49.2136 78.7331 53.6936ZM686.4 50.4936C686.826 50.7069 687.266 50.9202 687.693 51.1335C686.826 50.7069 685.973 50.2802 685.119 49.8535C685.546 50.0669 685.973 50.2802 686.4 50.4936ZM341.933 53.0535C341.493 54.5469 341.066 56.0402 340.64 57.5335C341.933 57.5335 343.213 57.5335 344.506 57.5335C344.08 59.2269 343.653 60.9335 343.213 62.6402C348.146 63.1068 347.333 49.9735 343.213 48.5735C342.786 50.0669 342.36 51.5602 341.933 53.0535ZM117.44 51.1335C117.013 51.9869 116.586 52.8402 116.146 53.6936C119.973 53.8536 124.906 54.1069 125.186 49.8535C122.76 51.0935 120.28 50.8802 118.733 48.5735C118.306 49.4269 117.867 50.2802 117.44 51.1335ZM467.079 47.3069C468.799 48.5735 470.52 49.8535 472.24 51.1335C469.653 51.9869 467.08 52.8402 464.493 53.6936C465.36 51.5602 466.213 49.4269 467.079 47.3069ZM1847.56 44.7469C1850 45.2936 1853.45 45.8135 1852.71 48.5735C1851 48.5735 1849.28 48.5735 1847.56 48.5735C1847.56 47.3069 1847.56 46.0269 1847.56 44.7469ZM174.213 46.0269C174.213 46.8802 174.213 47.7335 174.213 48.5735C176.586 49.1869 177.559 46.9069 178.079 44.7469C176.786 44.3202 175.493 43.8935 174.213 43.4669C174.213 44.3202 174.213 45.1736 174.213 46.0269ZM1163.76 42.8269C1164.19 43.0402 1164.63 43.2535 1165.05 43.4669C1164.19 43.0402 1163.33 42.6135 1162.48 42.1869C1162.91 42.4002 1163.33 42.6136 1163.76 42.8269ZM934.76 42.8269C935.4 43.0402 936.053 43.2535 936.693 43.4669C935.4 43.0402 934.12 42.6135 932.826 42.1869C933.466 42.4002 934.12 42.6136 934.76 42.8269ZM763.813 44.1069C763.813 44.7469 763.813 45.3869 763.813 46.0269C765.973 45.5069 768.293 44.5735 767.679 42.1869C766.399 42.1869 765.106 42.1869 763.813 42.1869C763.813 42.8269 763.813 43.4669 763.813 44.1069ZM696.719 46.0269C697.946 50.6269 705.173 50.6269 709.626 51.1335C709.306 46.4135 700.346 44.3869 695.44 42.1869C695.866 43.4669 696.293 44.7469 696.719 46.0269ZM517.386 42.1869C518.253 43.0402 519.106 43.8936 519.973 44.7469C518.68 45.1736 517.386 45.6002 516.106 46.0269C516.533 44.7469 516.96 43.4669 517.386 42.1869ZM199.373 43.4669C198.64 46.0135 199.666 46.6269 201.306 47.3069C202.56 44.8935 202.319 42.4402 200.013 40.9069C199.799 41.7602 199.586 42.6135 199.373 43.4669ZM181.946 42.8269C181.946 43.4669 181.946 44.1069 181.946 44.7469C181.093 44.7469 180.226 44.7469 179.373 44.7469C179.8 46.4536 180.226 48.1469 180.653 49.8535C183.386 48.6935 187.906 47.7202 187.106 44.7469C189.253 45.1736 191.413 45.6002 193.56 46.0269C190.133 43.0136 186.239 40.1469 181.946 40.9069C181.946 41.5469 181.946 42.1869 181.946 42.8269ZM1806.27 39.6269C1807.12 39.6269 1807.99 39.6269 1808.84 39.6269C1808.41 40.9069 1807.99 42.1869 1807.56 43.4669C1807.12 42.1869 1806.69 40.9069 1806.27 39.6269ZM1015.4 40.9069C1015.4 41.3335 1015.4 41.7602 1015.4 42.1869C1016.68 42.1869 1017.97 42.1869 1019.27 42.1869C1019.27 41.3335 1019.27 40.4802 1019.27 39.6269C1017.97 39.6269 1016.68 39.6269 1015.4 39.6269C1015.4 40.0536 1015.4 40.4802 1015.4 40.9069ZM1009.59 40.9069C1009.8 41.3335 1010.03 41.7602 1010.23 42.1869C1009.8 41.3335 1009.37 40.4802 1008.95 39.6269C1009.16 40.0536 1009.37 40.4802 1009.59 40.9069ZM944.44 40.9069C944.573 42.6669 948.72 42.9602 950.893 43.4669C949.573 40.8135 947.386 39.0536 944.44 39.6269C944.44 40.0536 944.44 40.4802 944.44 40.9069ZM554.813 39.6269C555.666 40.4802 556.533 41.3335 557.386 42.1869C556.093 42.1869 554.799 42.1869 553.519 42.1869C553.946 41.3335 554.373 40.4802 554.813 39.6269ZM538.04 39.6269C538.466 39.6269 538.893 39.6269 539.319 39.6269C539.906 42.4669 538.266 44.3469 535.453 44.7469C535.959 42.9469 536.346 39.6536 538.04 39.6269ZM157.44 43.4669C151.36 49.3335 146.053 43.4002 141.96 50.4936C139.56 54.7069 138.253 54.8802 135.507 53.6936C136.36 52.4136 137.226 51.1335 138.079 49.8535C136.359 49.4269 134.64 49.0002 132.92 48.5735C133.72 54.2669 127.2 56.0269 129.053 62.6402C126.906 60.9335 124.746 59.2269 122.6 57.5335C122.173 59.6535 121.747 61.7869 121.307 63.9202C123.027 63.9202 124.746 63.9202 126.466 63.9202C125.613 65.2002 124.746 66.4802 123.893 67.7602C128.48 70.3469 129.266 64.8535 134.213 69.6669C138.853 74.1202 142.573 71.2002 141.96 66.4802C139.8 66.9069 137.653 67.3336 135.507 67.7602C135.44 61.8002 141.72 53.5735 147.12 59.4402C148.333 65.3468 139.76 77.4402 141.96 83.0936C138.946 82.2402 135.933 81.3869 132.92 80.5335C139.04 76.0002 138.479 71.6935 130.346 72.8669C131.399 76.5469 131.706 80.4002 129.053 83.0936C136.893 84.0936 145.599 86.2268 156.146 84.3735C142.093 68.2535 182.053 82.0402 179.373 66.4802C184.626 65.3469 189.16 74.7335 194.853 72.8669C194.066 76.9069 183.933 74.1336 179.373 74.1469C179.8 77.1336 180.226 80.1069 180.653 83.0936C186.56 80.2402 193.44 77.0002 198.72 80.5335C201.653 74.6269 216.346 66.2268 218.079 77.9735C216.786 78.4002 215.493 78.8269 214.2 79.2535C218.973 82.5602 230.093 69.7602 228.4 65.2002C226.68 65.2002 224.96 65.2002 223.24 65.2002C223.666 63.4935 224.093 61.7869 224.52 60.0802C219.693 59.2536 213.333 71.5335 211.626 62.6402C212.066 58.4269 218.466 57.4269 218.079 52.4136C209.626 56.4536 205.426 40.7735 201.306 54.9735C204.506 55.3869 207.373 56.7869 207.76 60.0802C206.026 60.5069 204.306 60.9336 202.586 61.3602C202.64 56.0002 196.973 55.9069 192.266 56.2535C193.333 52.2002 188.146 50.3335 184.533 48.5735C184.533 51.1335 184.533 53.6935 184.533 56.2535C181.506 55.0135 178.386 55.1602 178.079 58.8002C177.866 55.0002 175.386 52.9336 171.626 53.6936C172.093 50.4269 173.813 45.4402 170.333 44.7469C171.2 44.3202 172.053 43.8935 172.92 43.4669C167.706 41.3469 162.68 39.1735 157.44 43.4669ZM820.573 38.3469C821.44 38.7736 822.293 39.2002 823.16 39.6269C821.866 40.0536 820.573 40.4802 819.293 40.9069C819.72 40.0535 820.146 39.2002 820.573 38.3469ZM707.693 39.6269C707.48 40.0536 707.266 40.4802 707.04 40.9069C707.48 40.0535 707.906 39.2002 708.333 38.3469C708.12 38.7736 707.906 39.2002 707.693 39.6269ZM804.453 39.6269C804.666 40.4802 804.88 41.3335 805.093 42.1869C808.226 41.8135 811.093 40.4402 810.253 37.0802C808.106 37.0802 805.959 37.0802 803.813 37.0802C804.026 37.9202 804.239 38.7736 804.453 39.6269ZM465.786 37.0802C469.64 39.1869 474.306 41.7202 477.4 38.3469C478.253 39.6269 479.12 40.9069 479.973 42.1869C479.12 42.1869 478.253 42.1869 477.4 42.1869C477.4 43.4669 477.4 44.7469 477.4 46.0269C472.453 45.7736 464.106 43.5869 461.92 47.3069C463.2 43.8935 464.493 40.4802 465.786 37.0802ZM243.226 38.9869C243.013 39.6269 242.8 40.2669 242.586 40.9069C243.44 40.9069 244.306 40.9069 245.173 40.9069C244.733 39.6269 244.306 38.3602 243.879 37.0802C243.666 37.7202 243.44 38.3469 243.226 38.9869ZM214.2 39.6269C213.346 40.4802 212.48 41.3335 211.626 42.1869C217.24 42.3469 221.146 49.5069 228.4 47.3069C228.4 48.1469 228.4 49.0002 228.4 49.8535C229.253 47.7335 230.12 45.6002 230.973 43.4669C234.266 44.1469 233.48 49.0802 233.56 52.4136C237.853 50.7069 242.16 49.0002 246.453 47.3069C241.306 40.2802 221.44 34.8136 214.2 39.6269ZM899.919 38.9869C899.279 40.0535 898.639 41.1202 897.986 42.1869C900.319 40.4802 904.12 38.3202 901.866 35.8002C901.213 36.8669 900.573 37.9202 899.919 38.9869ZM837.346 35.8002C838.639 35.8002 839.933 35.8002 841.226 35.8002C841.8 38.6269 840.173 40.5202 837.346 40.9069C837.346 39.2002 837.346 37.5069 837.346 35.8002ZM389.666 35.8002C392.293 36.3602 391.986 38.7735 390.96 40.9069C390.52 39.2002 390.093 37.5069 389.666 35.8002ZM312.253 35.8002C315.786 37.8002 312.88 41.7736 310.96 44.7469C310.133 41.4536 309.293 37.5869 312.253 35.8002ZM739.293 34.5202C740.16 35.3735 741.013 36.2269 741.879 37.0802C740.586 37.0802 739.306 37.0802 738.013 37.0802C738.439 36.2269 738.866 35.3735 739.293 34.5202ZM700.6 35.8002C700.16 36.2269 699.733 36.6536 699.306 37.0802C701.026 37.9202 702.746 38.7736 704.466 39.6269C704.893 37.9202 705.32 36.2269 705.76 34.5202C703.933 34.4802 701.893 34.3735 700.6 35.8002ZM547.066 34.5202C547.92 34.9469 548.786 35.3735 549.64 35.8002C549.213 36.6535 548.786 37.5069 548.36 38.3469C547.92 37.0802 547.493 35.8002 547.066 34.5202ZM292.906 35.8002C293.333 36.2269 293.76 36.6536 294.2 37.0802C293.333 36.2269 292.466 35.3735 291.613 34.5202C292.039 34.9469 292.466 35.3735 292.906 35.8002ZM1162.48 33.2402C1162.91 34.5202 1163.33 35.8002 1163.76 37.0802C1162.91 37.0802 1162.04 37.0802 1161.17 37.0802C1161.61 35.8002 1162.04 34.5202 1162.48 33.2402ZM768.333 34.5202C768.12 34.9469 767.893 35.3735 767.679 35.8002C768.546 35.8002 769.4 35.8002 770.266 35.8002C769.826 34.9469 769.4 34.0935 768.973 33.2402C768.76 33.6669 768.546 34.0935 768.333 34.5202ZM267.106 35.8002C267.106 36.6535 267.106 37.5069 267.106 38.3469C269.253 37.9336 271.399 37.4936 273.546 37.0802C271.399 35.8002 269.253 34.5202 267.106 33.2402C267.106 34.0935 267.106 34.9469 267.106 35.8002ZM876.706 34.5202C876.493 35.3735 876.266 36.2269 876.053 37.0802C874.773 36.6536 873.479 36.2269 872.186 35.8002C872.186 38.3469 872.186 40.9069 872.186 43.4669C879.026 42.9602 883.933 38.4402 891.533 43.4669C889.506 36.6002 880.293 39.1336 877.346 31.9602C877.133 32.8136 876.92 33.6669 876.706 34.5202ZM576.746 31.9602C578.893 32.8136 581.039 33.6669 583.186 34.5202C580.159 35.7602 577.053 35.6002 576.746 31.9602ZM341.279 33.2402C341.493 33.6669 341.72 34.0935 341.933 34.5202C341.493 33.6669 341.066 32.8136 340.64 31.9602C340.853 32.3869 341.066 32.8135 341.279 33.2402ZM1176.03 30.6802C1176.67 30.6802 1177.31 30.6802 1177.96 30.6802C1177.55 33.5069 1175.64 35.0935 1172.79 34.5202C1173.36 32.8002 1173.81 30.5602 1176.03 30.6802ZM734.133 30.6802C735 30.6802 735.853 30.6802 736.719 30.6802C736.719 31.9602 736.719 33.2402 736.719 34.5202C735.853 34.5202 735 34.5202 734.133 34.5202C734.133 33.2402 734.133 31.9602 734.133 30.6802ZM897.986 30.6802C898.413 31.1069 898.853 31.5336 899.279 31.9602C898.413 31.1069 897.56 30.2535 896.693 29.4002C897.133 29.8269 897.559 30.2536 897.986 30.6802ZM601.253 29.4002C608.719 30.2402 611.373 39.8669 618.026 37.0802C618.026 38.7736 618.026 40.4802 618.026 42.1869C610.706 42.3735 608.706 35.4802 601.253 37.0802C601.253 34.5202 601.253 31.9602 601.253 29.4002ZM570.293 29.4002C574.013 29.7202 575.013 33.5336 575.453 37.0802C573.293 37.0802 571.146 37.0802 569 37.0802C569.426 34.5202 569.853 31.9602 570.293 29.4002ZM319.346 32.6002C318.706 33.6669 318.066 34.7335 317.413 35.8002C315.866 33.4935 313.386 33.2802 310.96 34.5202C310.68 29.9469 304.786 30.6402 300.64 30.6802C303.173 37.0136 292.559 40.6936 295.479 46.0269C298.066 44.7469 300.64 43.4669 303.226 42.1869C303.653 43.8935 304.08 45.6002 304.52 47.3069C301.44 46.4802 301.24 50.9602 300.64 53.6936C298.133 45.7736 285.746 48.8935 291.613 56.2535C290.319 56.6802 289.026 57.1069 287.746 57.5335C286.879 53.2669 286.026 49.0002 285.16 44.7469C286.453 44.7469 287.746 44.7469 289.026 44.7469C288.4 40.9336 281.146 39.4135 281.293 33.2402C280 33.6669 278.706 34.0935 277.426 34.5202C280.293 40.7335 281.68 47.2669 280 53.6936C277.426 52.8402 274.84 51.9869 272.266 51.1335C283.933 40.4402 263.266 40.2935 258.706 37.7202C255.986 32.6002 252.906 38.5069 252.906 42.1869C260.666 41.7202 277.933 41.6535 267.106 51.1335C261.386 41.6669 256.76 55.0802 250.333 49.8535C249.893 51.9869 249.466 54.1202 249.04 56.2535C248.173 55.8269 247.32 55.4002 246.453 54.9735C245.16 57.5202 243.88 60.0802 242.586 62.6402C244.306 62.2135 246.026 61.7869 247.746 61.3602C247.746 62.6402 247.746 63.9202 247.746 65.2002C254.599 62.9202 255.093 76.4136 261.933 74.1469C260.653 69.8802 259.36 65.6269 258.066 61.3602C260.893 61.7602 262.52 63.6402 261.933 66.4802C261.533 59.3336 288.64 60.3069 290.32 63.9202C287.36 65.7069 288.2 69.5869 289.026 72.8669C292.466 69.0535 297.36 69.4669 301.933 71.5869C301.013 65.2802 309.133 65.1736 308.386 60.0802C306.24 60.5069 304.08 60.9336 301.933 61.3602C301.933 60.0802 301.933 58.8002 301.933 57.5335C304.08 57.5335 306.24 57.5335 308.386 57.5335C308.386 56.2535 308.386 54.9736 308.386 53.6936C310.106 54.1202 311.826 54.5469 313.546 54.9735C313.546 54.1202 313.546 53.2669 313.546 52.4136C317.013 54.6002 320.76 51.1735 323.866 48.5735C324.293 50.2802 324.733 51.9869 325.16 53.6936C322.706 54.2402 319.253 54.7602 320 57.5335C323.84 56.7602 326.573 58.9735 327.733 62.6402C329.12 61.1335 330.306 59.9735 332.893 60.7202C342.72 62.4802 331.293 50.5335 336.773 47.3069C335.48 46.4535 334.186 45.6002 332.893 44.7469C335.053 43.4669 337.199 42.1869 339.346 40.9069C336.039 40.0935 332.146 39.2402 330.32 42.1869C330.746 40.4802 331.173 38.7736 331.613 37.0802C328.173 37.9202 324.733 38.7736 321.293 39.6269C320.853 37.9202 320.426 36.2269 320 34.5202C321.293 34.5202 322.573 34.5202 323.866 34.5202C323.866 33.6669 323.866 32.8136 323.866 31.9602C326.013 32.3869 328.173 32.8135 330.32 33.2402C331.413 29.1735 320.506 28.8402 319.346 32.6002ZM1703.05 28.1202C1708.31 29.2002 1709.41 35.4402 1703.05 34.5202C1703.05 32.3869 1703.05 30.2535 1703.05 28.1202ZM491.586 28.1202C499.933 29.1335 495.64 37.2269 499.333 42.1869C494.08 43.1069 492.013 47.2802 492.879 52.4136C491.586 52.4136 490.293 52.4136 489.013 52.4136C489.439 49.0002 489.866 45.6002 490.293 42.1869C488.146 42.1869 486 42.1869 483.853 42.1869C482.786 38.5202 491.933 38.2269 495.453 37.0802C491.84 35.6669 491.2 31.8935 491.586 28.1202ZM1047.65 26.8535C1048.08 28.1335 1048.51 29.4136 1048.95 30.6802C1047.65 31.1069 1046.35 31.5336 1045.07 31.9602C1044.63 30.6802 1044.21 29.4002 1043.77 28.1202C1045.08 27.6935 1046.36 27.2669 1047.65 26.8535ZM866.386 28.1202C866.599 28.5469 866.813 28.9735 867.026 29.4002C866.6 28.5469 866.16 27.7069 865.733 26.8535C865.946 27.2802 866.159 27.6935 866.386 28.1202ZM681.24 26.8535C686.986 27.9869 686.066 34.5202 685.119 39.6269C683.919 36.5869 683.173 31.1202 679.946 31.9602C680.386 30.2536 680.813 28.5469 681.24 26.8535ZM618.026 26.8535C618.88 27.6935 619.746 28.5469 620.6 29.4002C619.32 29.4002 618.026 29.4002 616.733 29.4002C617.16 28.5469 617.586 27.6935 618.026 26.8535ZM1233.44 25.5735C1236.83 26.8935 1237.41 30.0135 1236.01 33.2402C1235.13 30.6802 1234.29 28.1335 1233.44 25.5735ZM1036.03 25.5735C1036.47 27.2802 1036.89 28.9736 1037.33 30.6802C1035.59 30.2536 1033.91 29.8269 1032.16 29.4002C1033.47 28.1202 1034.75 26.8402 1036.03 25.5735ZM945.719 28.7602C944.866 29.8269 943.999 30.8936 943.146 31.9602C947.773 34.7469 954.933 41.4536 958.626 37.0802C958.626 42.0002 963.266 42.6802 967.653 42.1869C981.266 21.3069 956.826 35.6535 948.306 25.5735C947.44 26.6402 946.586 27.6936 945.719 28.7602ZM927.013 25.5735C927.666 25.5735 928.306 25.5735 928.96 25.5735C928.96 27.6935 928.96 29.8269 928.96 31.9602C926.8 31.1069 924.653 30.2535 922.506 29.4002C923.626 27.6935 924.866 25.4535 927.013 25.5735ZM766.386 26.8535C766.826 27.2802 767.253 27.6935 767.679 28.1202C766.826 27.2802 765.96 26.4269 765.106 25.5735C765.533 26.0002 765.959 26.4269 766.386 26.8535ZM576.746 25.5735C578.026 25.5735 579.319 25.5735 580.613 25.5735C580.613 26.8535 580.613 28.1202 580.613 29.4002C579.319 28.1202 578.026 26.8535 576.746 25.5735ZM418.693 26.8535C418.906 27.2802 419.12 27.6935 419.333 28.1202C418.906 27.2802 418.48 26.4269 418.053 25.5735C418.266 26.0002 418.48 26.4269 418.693 26.8535ZM755.426 28.1202C754.786 29.4002 754.133 30.6802 753.493 31.9602C763.12 34.1202 762.493 18.6402 755.426 28.1202ZM1194.72 23.0136C1195.16 23.0136 1195.59 23.0136 1196.03 23.0136C1197.13 27.1202 1191.92 28.2802 1188.28 29.4002C1190.09 27.2269 1192.93 23.1069 1194.72 23.0136ZM1159.24 24.2936C1159.04 24.7202 1158.81 25.1469 1158.61 25.5735C1159.47 25.5735 1160.32 25.5735 1161.17 25.5735C1160.76 24.7202 1160.32 23.8669 1159.89 23.0136C1159.68 23.4402 1159.47 23.8669 1159.24 24.2936ZM963.146 24.9335C963.746 27.1069 965.866 26.8802 967.653 26.8535C965.933 25.5735 964.213 24.2936 962.493 23.0136C962.72 23.6536 962.933 24.2935 963.146 24.9335ZM570.293 23.0136C571.146 23.8669 572.013 24.7202 572.866 25.5735C571.573 26.4269 570.293 27.2802 569 28.1202C569.426 26.4269 569.853 24.7202 570.293 23.0136ZM1152.16 21.7336C1154.52 25.3602 1150.4 27.0802 1146.99 28.1202C1146.99 26.4269 1146.99 24.7202 1146.99 23.0136C1148.72 23.4402 1150.43 23.8669 1152.16 24.2936C1152.16 23.4402 1152.16 22.5869 1152.16 21.7336ZM536.746 21.7336C539.319 22.1602 541.906 22.5869 544.479 23.0136C541.319 24.1202 538.559 26.2002 540.613 29.4002C539.319 29.4002 538.039 29.4002 536.746 29.4002C536.746 26.8535 536.746 24.2936 536.746 21.7336ZM1643.71 20.4535C1644.56 21.7335 1645.43 23.0136 1646.28 24.2936C1641.23 26.6402 1637.77 23.2535 1643.71 20.4535ZM1616.61 20.4535C1618.16 22.7602 1620.63 22.9736 1623.07 21.7336C1623.07 22.5869 1623.07 23.4402 1623.07 24.2936C1620.05 24.2936 1617.04 24.2936 1614.03 24.2936C1614.88 23.0136 1615.76 21.7335 1616.61 20.4535ZM1237.31 20.4535C1238.16 21.7335 1239.03 23.0136 1239.89 24.2936C1239.03 24.2936 1238.16 24.2936 1237.31 24.2936C1237.31 23.0136 1237.31 21.7335 1237.31 20.4535ZM1219.24 20.4535C1219.67 20.4535 1220.09 20.4535 1220.52 20.4535C1220.52 21.7335 1220.52 23.0136 1220.52 24.2936C1222.27 23.8669 1223.97 23.4402 1225.69 23.0136C1224.56 26.0802 1223.91 32.9736 1220.52 31.9602C1220.52 30.2536 1220.52 28.5469 1220.52 26.8535C1217.71 26.2802 1215.77 27.8669 1215.37 30.6802C1214.51 30.2536 1213.65 29.8269 1212.79 29.4002C1214.35 26.9069 1217.41 20.5202 1219.24 20.4535ZM1156.03 20.4535C1158.6 20.4535 1161.19 20.4535 1163.76 20.4535C1165.45 34.2935 1154.95 35.1069 1156.03 20.4535ZM1189.57 19.1735C1190 20.8802 1190.43 22.5869 1190.85 24.2936C1185.84 22.9202 1186.6 30.6802 1181.83 30.6802C1181.83 28.1202 1181.83 25.5736 1181.83 23.0136C1185.33 23.3202 1189.27 23.0535 1189.57 19.1735ZM788.319 19.1735C790.613 20.0135 790.453 27.3869 794.773 25.5735C792.253 33.2535 778.999 19.5735 788.319 19.1735ZM716.079 19.8136C716.506 20.0269 716.933 20.2402 717.36 20.4535C716.506 20.0269 715.639 19.6002 714.786 19.1735C715.213 19.3869 715.639 19.6002 716.079 19.8136ZM1611.44 17.8936C1612.32 18.7469 1613.16 19.6002 1614.03 20.4535C1611.88 21.3069 1609.73 22.1602 1607.57 23.0136C1608.87 21.3069 1610.16 19.6002 1611.44 17.8936ZM1059.27 16.6269C1060.99 16.6269 1062.72 16.6269 1064.41 16.6269C1064.41 17.4802 1064.41 18.3202 1064.41 19.1735C1062.71 18.3335 1060.97 17.4802 1059.27 16.6269ZM1016.68 16.6269C1020.93 20.1602 1020.47 26.6135 1014.09 25.5735C1014.55 26.8535 1014.96 28.1202 1015.4 29.4002C1012.67 28.2402 1008.16 27.2669 1008.95 24.2936C1007.65 24.7202 1006.36 25.1469 1005.08 25.5735C1007.68 22.9335 1011.09 23.5602 1014.09 25.5735C1014.97 22.5869 1015.83 19.6002 1016.68 16.6269ZM936.693 16.6269C940.333 17.8536 942.826 20.4669 943.146 24.2936C941.426 24.7202 939.706 25.1469 937.986 25.5735C937.559 22.5869 937.12 19.6002 936.693 16.6269ZM508.36 17.2669C501.106 19.9869 511.133 21.4402 514.813 21.7336C515.666 17.6802 512.093 16.1069 508.36 17.2669ZM931.533 15.9869C933.226 16.8935 931.92 20.7736 931.533 23.0136C929.08 20.7736 926.466 15.0669 931.533 15.9869ZM1069.57 14.0669C1070.88 14.0669 1072.16 14.0669 1073.45 14.0669C1073.45 14.9202 1073.45 15.7736 1073.45 16.6269C1072.16 15.7736 1070.88 14.9202 1069.57 14.0669ZM1394.71 12.7869C1395.56 13.6402 1396.43 14.4936 1397.28 15.3469C1396 15.3469 1394.71 15.3469 1393.41 15.3469C1393.84 14.4936 1394.27 13.6402 1394.71 12.7869ZM1201.17 12.7869C1203.24 15.9869 1200.47 18.0802 1197.31 19.1735C1199.96 17.8802 1201.76 15.7335 1201.17 12.7869ZM664.466 15.9869C664.906 17.0535 665.333 18.1069 665.76 19.1735C667.026 16.1602 666.826 13.0802 663.186 12.7869C663.613 13.8535 664.04 14.9202 664.466 15.9869ZM618.666 14.0669C618.453 14.4936 618.24 14.9202 618.026 15.3469C619.306 15.7736 620.6 16.2002 621.893 16.6269C621.04 15.3469 620.173 14.0669 619.319 12.7869C619.093 13.2135 618.88 13.6402 618.666 14.0669ZM916.053 11.5069C919.493 12.3602 922.933 13.2136 926.373 14.0669C924.226 22.3336 912.239 20.0935 916.053 11.5069ZM713.493 11.5069C716.506 12.3602 719.52 13.2136 722.533 14.0669C719.746 16.6802 720.879 19.6669 723.813 21.7336C720.146 26.0936 710.68 26.7469 712.2 19.1735C713.066 19.1735 713.919 19.1735 714.786 19.1735C714.359 16.6269 713.92 14.0669 713.493 11.5069ZM628.346 12.7869C628.773 13.2135 629.2 13.6402 629.64 14.0669C628.773 13.2136 627.919 12.3602 627.053 11.5069C627.479 11.9335 627.919 12.3602 628.346 12.7869ZM1079.91 10.2269C1081.2 11.0802 1082.49 11.9335 1083.77 12.7869C1081.64 13.6402 1079.45 14.4936 1077.33 15.3469C1078.19 13.6402 1079.04 11.9336 1079.91 10.2269ZM807.026 12.7869C807.893 15.5469 805.719 16.7202 803.813 17.8936C807.039 20.2536 811.253 22.4136 812.84 17.8936C811.546 17.8936 810.253 17.8936 808.973 17.8936C809.986 14.5336 810.493 10.4936 806.386 10.2269C806.599 11.0802 806.813 11.9335 807.026 12.7869ZM781.226 10.8669C785.173 11.5202 785.986 11.8269 785.746 14.0669C782.199 14.0269 777.76 14.4135 775.426 12.7869C776.293 10.5602 777.186 10.3602 781.226 10.8669ZM1515.33 10.2269C1516.09 11.8402 1518.35 10.6936 1519.85 10.2269C1518.12 9.80025 1516.41 9.37357 1514.68 8.9469C1514.91 9.37357 1515.12 9.80025 1515.33 10.2269ZM816.706 13.4269C817.946 18.9202 824.173 23.3869 828.319 19.1735C828.719 22.0002 830.653 23.5869 833.479 23.0136C833.053 19.6002 832.626 16.2002 832.186 12.7869C827.386 15.1335 818.32 16.1869 819.293 8.9469C818 8.9469 816.706 8.9469 815.413 8.9469C815.853 10.4402 816.28 11.9336 816.706 13.4269ZM1116.03 7.68023C1120.8 13.1069 1129.6 14.0136 1130.23 24.2936C1131.93 23.0136 1133.67 21.7335 1135.37 20.4535C1135.81 22.5869 1136.24 24.7202 1136.68 26.8535C1133.87 23.9469 1129.89 25.0935 1126.35 26.8535C1130.91 14.4669 1106.13 18.9869 1116.03 7.68023ZM1149.57 8.30686C1149.57 8.94686 1149.57 9.58691 1149.57 10.2269C1151.93 10.8402 1152.95 8.57355 1153.44 6.40022C1152.16 6.40022 1150.87 6.40022 1149.57 6.40022C1149.57 7.04022 1149.57 7.68019 1149.57 8.30686ZM1015.4 6.40022C1016.68 7.66689 1017.97 8.94691 1019.27 10.2269C1017.55 10.2269 1015.84 10.2269 1014.09 10.2269C1014.55 8.94691 1014.96 7.66689 1015.4 6.40022ZM954.76 6.40022C956.906 6.40022 959.053 6.40022 961.213 6.40022C960.026 9.12022 959.026 13.5735 956.053 12.7869C956.839 10.2669 957.76 7.00022 954.76 6.40022ZM1215.37 5.12021C1216.67 5.97354 1217.95 6.8269 1219.24 7.68023C1217.95 7.68023 1216.67 7.68023 1215.37 7.68023C1215.37 6.8269 1215.37 5.97354 1215.37 5.12021ZM860.573 5.12021C862.72 6.82687 864.88 8.52025 867.026 10.2269C866.16 10.2269 865.306 10.2269 864.44 10.2269C865.386 14.8402 861.32 19.2269 858 23.0136C856.413 16.8669 857.493 10.7602 860.573 5.12021ZM1048.95 4.48023C1049.37 4.69357 1049.8 4.90687 1050.23 5.12021C1049.37 4.69354 1048.51 4.26686 1047.65 3.84019C1048.08 4.05353 1048.51 4.2669 1048.95 4.48023ZM807.679 5.12021C808.106 5.54687 808.533 5.97355 808.973 6.40022C808.106 5.54689 807.253 4.69353 806.386 3.84019C806.813 4.26686 807.253 4.69354 807.679 5.12021ZM1148.92 1.92021C1149.57 2.13354 1150.21 2.34691 1150.87 2.56025C1149.57 2.13358 1148.29 1.7069 1146.99 1.28023C1147.64 1.49357 1148.28 1.70687 1148.92 1.92021ZM842.519 2.56025C842.946 2.98691 843.373 3.41353 843.8 3.84019C842.946 2.98686 842.08 2.13357 841.226 1.28023C841.653 1.7069 842.079 2.13358 842.519 2.56025ZM1003.79 0.640195C1001.25 1.21353 1001.08 2.14686 1001.2 3.84019C1004.56 3.76019 1009.53 4.56023 1010.23 1.28023C1008.13 0.520234 1006.31 -0.0664716 1003.79 0.640195ZM994.746 2.56025C996.306 5.36025 995.306 10.3469 994.746 14.0669C992.599 13.6402 990.453 13.2135 988.293 12.7869C990.64 7.60021 990.693 2.16023 984.426 1.28023C992.306 11.0002 977.493 16.2802 977.973 25.5735C979.266 25.5735 980.559 25.5735 981.853 25.5735C982.439 28.5069 980.626 30.6669 977.973 31.9602C982.733 32.0669 985.946 35.0136 987.013 39.6269C989.266 36.7336 992.399 35.2669 996.053 35.8002C996.053 33.6669 996.053 31.5335 996.053 29.4002C994.306 30.2535 992.599 31.1069 990.879 31.9602C992.013 27.7469 986.799 27.3469 983.146 26.8535C985.826 25.1869 985.453 22.0402 984.426 19.1735C986.16 19.1735 987.88 19.1735 989.6 19.1735C986.533 28.8535 1000.55 29.6269 997.333 20.4535C998.626 20.0269 999.906 19.6002 1001.2 19.1735C1001.2 22.1602 1001.2 25.1469 1001.2 28.1202C1000.35 28.1202 999.466 28.1202 998.626 28.1202C996.453 46.6135 1007.8 37.6002 1014.75 31.3202C1018.84 34.4269 1016.92 37.7602 1026.36 35.1602C1034.24 29.5736 1053.07 49.8402 1050.23 35.8002C1071.67 45.8802 1082.96 41.5869 1103.77 39.6269C1113.77 37.9069 1112.21 40.0535 1116.68 42.1869C1119.81 41.3335 1120.65 36.7736 1125.07 37.0802C1124.63 35.8002 1124.2 34.5202 1123.76 33.2402C1130.17 31.2402 1128.81 40.6002 1134.09 40.9069C1132.19 34.6402 1142.45 34.3869 1140.55 28.1202C1142.69 28.1202 1144.85 28.1202 1146.99 28.1202C1144.85 31.1069 1142.69 34.0936 1140.55 37.0802C1150.53 34.5336 1149.24 45.1202 1159.89 40.9069C1167.35 38.3069 1169.23 40.2136 1171.51 44.7469C1172.4 39.7336 1180.28 42.8535 1182.48 40.9069C1184.37 38.1735 1189.6 39.9602 1189.57 43.4669C1194.15 40.6269 1199.21 41.8536 1203.76 44.7469C1204.19 43.8936 1204.63 43.0402 1205.04 42.1869C1203.77 41.7602 1202.48 41.3335 1201.17 40.9069C1203.33 40.4802 1205.47 40.0536 1207.63 39.6269C1207.63 41.3336 1207.63 43.0402 1207.63 44.7469C1216.93 39.5736 1233.15 49.5735 1241.17 40.9069C1240.75 41.7602 1240.31 42.6135 1239.89 43.4669C1263.75 41.7069 1287.8 48.6669 1309.56 53.6936C1309.87 50.2936 1312.81 49.4135 1316 49.8535C1316 51.5602 1316 53.2669 1316 54.9735C1319.39 54.5602 1323.47 53.6802 1322.45 49.8535C1326.52 54.8402 1334.39 51.8002 1340.52 49.8535C1340.08 51.1335 1339.65 52.4136 1339.23 53.6936C1343.47 54.8936 1346.03 48.4402 1348.25 44.7469C1348.84 47.3602 1351.29 47.0402 1353.41 46.0269C1353.85 47.7336 1354.27 49.4269 1354.71 51.1335C1357.29 49.8535 1359.87 48.5735 1362.45 47.3069C1362.45 49.0002 1362.45 50.7069 1362.45 52.4136C1365.03 52.4136 1367.61 52.4136 1370.19 52.4136C1368.89 53.6936 1367.61 54.9735 1366.32 56.2535C1379.72 49.5202 1387.19 61.3735 1399.87 54.9735C1398.45 59.7602 1406.25 59.4669 1410.19 60.0802C1408.93 47.7069 1424.01 60.0002 1428.25 54.3335C1432.08 48.8402 1435.53 51.4135 1437.28 56.2535C1434.27 57.0935 1431.27 57.9469 1428.25 58.8002C1431.23 65.5602 1442.04 65.5602 1445.01 58.8002C1442.89 59.8269 1440.44 60.1335 1439.85 57.5335C1443.57 57.3602 1449.41 58.4269 1450.19 54.9735C1452.83 61.1868 1465.81 54.4935 1465.67 62.6402C1462.84 62.0668 1460.89 63.6402 1460.51 66.4802C1467.29 64.4402 1468.49 56.0002 1478.56 58.8002C1477.71 61.7869 1476.84 64.7736 1475.99 67.7602C1481.88 68.6936 1487.09 65.6402 1491.47 61.3602C1492.76 63.9202 1494.04 66.4802 1495.33 69.0269C1499.13 65.3869 1512.39 65.9469 1519.85 65.2002C1519.85 66.9069 1519.85 68.6002 1519.85 70.3068C1526.52 70.1868 1534.83 69.1336 1532.75 61.3602C1542.67 59.7336 1550.25 70.3868 1558.55 70.3068C1559.99 66.4135 1550.67 67.8135 1552.09 63.9202C1560.33 61.3869 1560.03 72.1468 1567.59 70.3068C1567.59 69.0268 1567.59 67.7469 1567.59 66.4802C1571.35 67.5869 1577.91 68.4802 1576.61 72.8669C1585.79 76.0402 1592.81 64.3069 1599.84 63.9202C1598.12 66.9069 1596.39 69.8935 1594.68 72.8669C1596.83 71.5869 1598.97 70.3069 1601.13 69.0269C1601.45 73.5736 1608.05 75.0402 1611.44 72.2269C1614.99 69.0536 1622.45 76.6002 1626.29 74.1469C1629.6 72.6402 1632.87 74.1069 1635.96 75.4269C1634.67 68.9202 1646.44 66.3869 1648.23 72.2269C1650.64 79.5069 1658.48 72.9469 1661.76 69.0269C1662.2 70.7336 1662.63 72.4402 1663.05 74.1469C1664.36 73.2936 1665.64 72.4402 1666.93 71.5869C1668.13 73.4935 1669.31 75.6269 1672.09 74.7869C1676.16 73.6535 1674.67 77.5869 1679.19 75.4269C1682.17 73.2536 1690.35 77.4402 1692.73 75.4269C1702.16 75.7602 1717.28 84.0935 1726.28 76.7068C1728.37 83.8535 1735.8 81.8135 1741.76 79.2535C1740.47 80.1069 1739.17 80.9602 1737.89 81.8136C1770 86.1602 1823.64 87.6536 1852.71 98.4269C1854.32 96.8402 1856.29 94.2536 1858.52 95.8802C1860.21 98.0402 1866.35 93.8536 1867.55 95.8802C1869.11 97.9069 1887.88 95.2136 1890.12 97.1602C1894.87 99.6136 1895.37 92.5868 1897.87 92.0402C1899.61 92.0802 1904.16 94.5336 1906.91 95.8802C1904.44 96.4136 1901 96.9468 1901.73 99.7068C1905.4 98.5602 1909.33 98.4269 1910.77 102.267C1913.56 98.6402 1923.15 103.307 1926.25 95.8802C1925.65 102 1932.17 107.827 1936.57 102.267C1935.57 106.627 1939.15 109.36 1943.01 111.214C1943.89 100.334 1951.33 112.427 1957.21 108.654C1957.21 113.8 1961.97 113.72 1966.25 112.494C1966.25 113.347 1966.25 114.214 1966.25 115.054C1967.53 115.054 1968.81 115.054 1970.12 115.054C1969.68 113.347 1969.27 111.654 1968.83 109.934C1969.69 109.934 1970.55 109.934 1971.4 109.934C1971.4 108.667 1971.4 107.387 1971.4 106.107C1973.99 108.12 1975.77 110.84 1973.99 113.76C1980.73 115.28 1981.92 108.56 1988.19 107.387C1988.6 109.507 1989.04 111.654 1989.47 113.76C1995.81 110.4 1995.4 119.294 2001.73 119.534C2009.69 123.76 2015 125.614 2019.15 115.054C2022.37 118.52 2026.69 118.72 2030.75 116.334C2031.04 120.587 2035.95 120.32 2039.79 120.16C2039.79 121.867 2039.79 123.56 2039.79 125.28C2042.19 124.04 2044.69 124.254 2046.23 126.56C2045.48 123.787 2048.96 123.267 2051.4 122.72C2051.4 124 2051.4 125.28 2051.4 126.56C2059.52 124.347 2059.68 131.467 2066.88 131.04C2071.83 130.334 2073.55 131.587 2075.91 134.227C2078.07 132.094 2080.21 129.974 2082.36 127.827C2082.36 129.96 2082.36 132.08 2082.36 134.227C2091.83 131.96 2101.72 140.747 2101.71 131.667C2106.39 136.507 2113.85 138.174 2121.07 139.334C2120.64 140.2 2120.2 141.04 2119.77 141.894C2126.57 140.974 2131.85 137 2140.41 140.614C2135.67 145.227 2142.15 149.574 2146.87 147.014C2146.01 146.147 2145.15 145.307 2144.29 144.454C2145.57 144.027 2146.87 143.6 2148.16 143.174C2148.16 144.027 2148.16 144.88 2148.16 145.734C2170.77 150.92 2193.04 160.414 2217.83 159.787C2217.72 156.534 2217.56 153.347 2221.05 151.48C2226.16 148.974 2220.97 142.16 2226.85 139.974C2236.52 117.254 2197.37 109.147 2183 106.747C2168.8 99.2136 2151.13 100.934 2136.55 96.5202C2127.05 89.7469 2108.2 88.0002 2097.84 84.3735C2098.28 85.6535 2098.69 86.9335 2099.13 88.2002C2097.23 85.0002 2093.25 86.8002 2090.09 88.2002C2090.09 86.0802 2090.09 83.9469 2090.09 81.8136C2073.87 85.5336 2070.43 74.1735 2050.75 74.7869C2021.65 71.3069 1996.15 63.1868 1968.83 62.6402C1968.83 61.7868 1968.83 60.9336 1968.83 60.0802C1959.07 62.3069 1951.99 54.8935 1944.32 58.8002C1944.32 57.1069 1944.32 55.4002 1944.32 53.6936C1932.72 59.0002 1925.96 49.6002 1915.93 49.8535C1916.79 51.1335 1917.65 52.4136 1918.51 53.6936C1911.97 52.9869 1905.33 43.9335 1899.16 51.1335C1894.83 44.1735 1880.67 53.3469 1874.64 49.8535C1876.95 48.3335 1877.2 45.8669 1875.93 43.4669C1873.37 45.4935 1871.84 45.8935 1868.19 42.1869C1860.21 37.2935 1852.81 39.1336 1842.39 38.3469C1843.24 39.6402 1844.12 40.9069 1844.97 42.1869C1840.2 40.7202 1835.55 41.3736 1833.36 46.0269C1832.91 41.9602 1833.89 38.1602 1837.23 35.8002C1835.08 36.8135 1832.67 37.1335 1832.07 34.5202C1830.91 39.2402 1826.35 40.1736 1821.75 39.6269C1821.01 36.8669 1824.47 36.3335 1826.91 35.8002C1822.53 32.5335 1815.41 40.2669 1812.07 35.1602C1810.27 32.0269 1808.79 31.8002 1806.27 31.9602C1806.27 34.5202 1806.27 37.0802 1806.27 39.6269C1791.55 36.1469 1808.73 25.4802 1785.63 36.4402C1778.31 37.8802 1779.63 29.7736 1774.65 27.4936C1771.19 25.1602 1762.55 25.5735 1757.24 25.5735C1757.24 29.8269 1757.24 34.0936 1757.24 38.3469C1756.39 34.0936 1755.52 29.8269 1754.65 25.5735C1748.24 33.8935 1735.8 15.6402 1736.59 29.4002C1742.51 28.2535 1746.85 31.7869 1749.49 37.0802C1745.13 36.9602 1736.55 38.1335 1735.96 33.2402C1735.52 30.6802 1733.8 29.6135 1730.79 30.0402C1724.92 31.3735 1725.93 27.3335 1721.11 28.1202C1723.69 34.1469 1709.55 36.6669 1709.51 30.6802C1712.8 30.3069 1714.25 27.5069 1714.65 24.2936C1713.37 25.1469 1712.08 26.0002 1710.79 26.8535C1709.09 20.6002 1703.93 18.4535 1697.89 20.4535C1700.04 21.7335 1702.19 23.0136 1704.35 24.2936C1702.61 25.1469 1700.91 26.0002 1699.17 26.8535C1699.61 27.6935 1700.03 28.5469 1700.48 29.4002C1696.71 30.1735 1694.24 28.0936 1694.03 24.2936C1692.29 25.1469 1690.59 26.0002 1688.85 26.8535C1688.35 15.0535 1678.24 19.1602 1670.8 19.1869C1666.91 17.7202 1665.15 19.4536 1663.05 21.7336C1659.83 17.6269 1651.75 11.7202 1648.87 17.8936C1647.57 16.6269 1646.28 15.3469 1645 14.0669C1640.93 30.2002 1634.67 6.30686 1626.93 17.9069C1625.72 20.5602 1623.96 20.5602 1621.77 20.4535C1621.77 18.7469 1621.77 17.0536 1621.77 15.3469C1614.09 18.1202 1614.72 12.2936 1605.64 12.1469C1595.61 7.52023 1585.11 27.3602 1584.36 12.7869C1580.11 12.1202 1576.49 13.6669 1575.33 17.8936C1576.61 17.8936 1577.91 17.8936 1579.2 17.8936C1579.2 18.7469 1579.2 19.6002 1579.2 20.4535C1576.15 20.5202 1562.44 19.7602 1561.13 15.9869C1557.6 12.4535 1555.63 9.33357 1548.88 8.9469C1542.81 7.7469 1525.65 23.5869 1535.33 8.9469C1526.28 7.44023 1525.03 11.9869 1516.63 13.4269C1510.63 15.4269 1501.37 6.30686 1496.63 7.04019C1492.23 8.34686 1490.47 17.0669 1485.67 10.2269C1483.57 6.09358 1472.25 13.0936 1470.19 8.9469C1468.31 6.2269 1465.79 6.29355 1463.08 6.40022C1463.08 7.25355 1463.08 8.09357 1463.08 8.9469C1459.64 8.09357 1456.2 7.24022 1452.76 6.40022C1453.33 9.24022 1451.72 11.1069 1448.88 11.5069C1449.75 9.80019 1450.61 8.10689 1451.47 6.40022C1448.89 6.40022 1446.31 6.40022 1443.73 6.40022C1443.76 9.38689 1444.2 13.4402 1441.15 14.0669C1440.29 11.0802 1439.43 8.09354 1438.57 5.12021C1435.27 5.49354 1433.84 8.29353 1433.4 11.5069C1428.85 6.94686 1421.8 10.5069 1417.92 8.32021C1416.64 5.32021 1411.71 8.81358 1410.84 5.76025C1410.23 3.58691 1408.09 3.80019 1406.32 3.84019C1407.6 5.12019 1408.91 6.40023 1410.19 7.68023C1404.59 6.40023 1399.01 5.12019 1393.41 3.84019C1392.99 5.97353 1392.56 8.09358 1392.12 10.2269C1386.68 3.90691 1364.96 11.1602 1362.45 3.84019C1350.48 4.86686 1332.25 6.08019 1319.87 3.84019C1319.87 4.69353 1319.87 5.54689 1319.87 6.40022C1316.53 6.46689 1311.55 5.68023 1310.84 8.9469C1309.35 -0.506433 1284.01 0.426901 1281.17 7.68023C1282.33 0.0269006 1259.27 -0.693138 1257.95 3.84019C1254.64 1.50686 1250.92 1.49353 1247.63 3.84019C1247.17 -0.253138 1210.53 3.05355 1210.21 0.000221114C1210.21 1.28022 1210.21 2.56019 1210.21 3.84019C1208.48 3.41353 1206.77 2.98691 1205.04 2.56025C1206.35 5.97358 1207.63 9.37354 1208.92 12.7869C1206.77 12.3602 1204.61 11.9335 1202.48 11.5069C1207.81 3.46686 1187.09 -2.4931 1190.85 7.68023C1187.83 4.65357 1184.35 0.440234 1180.55 1.28023C1180.55 2.9869 1180.55 4.69355 1180.55 6.40022C1176.75 0.453555 1167.35 1.1869 1159.89 1.28023C1161.6 2.56023 1163.33 3.84021 1165.05 5.12021C1160.28 5.14687 1158.88 9.61355 1158.61 14.0669C1157.31 12.7869 1156.01 11.5069 1154.73 10.2269C1155.16 13.6402 1155.59 17.0535 1156.03 20.4535C1152.16 18.3202 1148.28 16.2002 1144.41 14.0669C1150.17 22.2136 1140.13 26.5202 1139.24 15.3469C1137.12 16.2002 1134.93 17.0536 1132.8 17.8936C1134.52 15.3336 1136.25 12.7869 1137.96 10.2269C1134.31 9.08025 1132.03 6.40025 1132.8 2.56025C1131.51 2.56025 1130.21 2.56025 1128.93 2.56025C1133.75 11.3736 1114.21 11.5469 1117.31 3.84019C1113.56 6.66686 1108.81 5.68019 1104.41 3.84019C1110.37 15.3202 1083.59 12.6936 1101.83 6.40022C1098.04 -4.39978 1088.91 3.88025 1081.84 2.56025C1072.63 -1.85309 1068.28 9.41355 1061.84 10.8669C1059.28 10.1469 1058.65 11.1602 1057.96 12.7869C1056.09 9.69354 1058.21 6.49353 1060.55 3.84019C1057.52 5.00019 1054.59 6.88025 1055.4 10.2269C1045.47 12.4802 1043.04 4.96025 1034.75 2.56025C1033.89 5.54691 1033.03 8.53353 1032.16 11.5069C1033.91 11.0802 1035.59 10.6536 1037.33 10.2269C1038.12 13.3736 1032.6 14.9202 1029.59 16.6269C1033.39 17.0802 1037.13 18.2536 1038.61 21.7336C1033.33 21.3869 1028 21.9202 1024.43 25.5735C1022.05 22.9602 1026.56 17.5069 1028.29 14.0669C1027.01 13.6402 1025.72 13.2135 1024.43 12.7869C1023.89 15.2402 1023.31 18.6402 1020.56 17.8936C1018.19 10.7202 1031.96 13.5736 1029.59 6.40022C1028.29 6.40022 1027 6.40022 1025.72 6.40022C1025.72 5.54689 1025.72 4.69353 1025.72 3.84019C1021.29 4.97353 1016.65 5.16023 1014.09 1.28023C1014.09 3.41357 1014.09 5.5469 1014.09 7.68023C1005.87 8.5469 998.333 6.66689 993.466 0.000221114C993.893 0.853554 994.319 1.70691 994.746 2.56025ZM865.093 1.92021C864.946 4.97354 852.333 0.146888 852.186 3.20022C851.413 5.61355 846.68 5.86689 843.8 6.40022C845.093 8.09355 846.386 9.80019 847.679 11.5069C849.399 10.2269 851.12 8.9469 852.84 7.68023C852.84 10.6536 852.84 13.6402 852.84 16.6269C847.986 13.6136 842.186 9.36025 837.346 10.2269C846.973 5.36025 830.72 -2.54643 830.906 7.68023C830.506 0.746901 814.266 0.853555 814.133 6.40022C822.96 5.24022 826.453 12.1336 836.066 10.2269C834.413 18.9469 838.893 23.6402 847.679 23.0136C843.453 24.4802 844.12 29.2135 845.093 33.2402C836.36 33.5202 833.826 24.8669 826.386 24.9335C820.319 25.4402 819.853 30.8669 814.133 28.1202C814.56 26.4269 814.986 24.7202 815.413 23.0136C806.133 33.7069 788.213 20.3602 802.519 11.5069C799.079 8.94686 795.64 6.40019 792.2 3.84019C792.2 5.12019 792.2 6.40023 792.2 7.68023C786.333 3.60023 781.52 10.2935 776.066 5.12021C771.253 4.13354 743.733 11.6269 740.586 10.2269C736.853 17.9469 740.8 23.6135 748.333 26.8535C738.293 29.0269 738.693 17.4402 731.56 17.8936C734.133 14.0669 736.72 10.2269 739.293 6.40022C722.546 10.2669 703.706 8.17357 690.279 15.3469C690.706 14.0669 691.133 12.7869 691.56 11.5069C685.32 8.30686 682.986 15.8002 686.4 20.4535C683.64 19.7069 683.08 23.1202 682.533 25.5735C674.36 23.3335 679.2 14.8136 682.533 8.9469C680.813 10.2269 679.093 11.5069 677.373 12.7869C677.373 11.5069 677.373 10.2269 677.373 8.9469C659.653 6.09357 677.506 34.4402 661.893 34.5202C661.893 31.9602 661.893 29.4002 661.893 26.8535C659.746 27.2802 657.586 27.7069 655.44 28.1202C654.573 24.6135 661.133 25.0136 664.466 24.2936C662.8 18.3869 658.266 16.0135 652.853 19.1735C652.853 17.4669 652.853 15.7736 652.853 14.0669C649.026 16.3602 645.933 11.4536 642.533 15.3469C642.973 14.0669 643.4 12.7869 643.826 11.5069C627 9.60019 631.68 53.1469 612.866 11.5069C609.906 15.2135 605.919 17.3602 601.253 16.6269C601.253 17.4802 601.253 18.3202 601.253 19.1735C600.386 18.3202 599.533 17.4669 598.666 16.6269C597.386 18.3202 596.093 20.0269 594.8 21.7336C596.52 20.8802 598.24 20.0269 599.96 19.1735C600.386 21.3069 600.826 23.4402 601.253 25.5735C599.533 25.1469 597.813 24.7202 596.093 24.2936C595.666 26.0002 595.226 27.6935 594.8 29.4002C589.533 24.0135 586.213 17.1335 593.506 12.7869C582.173 10.9469 579.013 22.4402 569 19.1735C569.426 18.3202 569.853 17.4669 570.293 16.6269C562.346 19.8136 554.906 13.2002 549.64 16.6269C550.933 18.3202 552.226 20.0269 553.519 21.7336C548.519 20.1202 537.626 19.0536 536.746 15.3469C533.306 18.3602 529.426 21.2135 525.133 20.4535C525.56 18.7469 525.986 17.0536 526.426 15.3469C525.8 18.3336 522.506 17.3869 519.973 16.6269C520.786 24.2136 527.093 32.2802 534.16 30.6802C534.16 31.9602 534.16 33.2402 534.16 34.5202C535.88 34.5202 537.599 34.5202 539.319 34.5202C538.466 35.8002 537.599 37.0802 536.746 38.3469C534.693 34.8536 528.146 36.6669 523.84 37.0802C524.266 34.5202 524.706 31.9602 525.133 29.4002C521.693 29.8269 518.253 30.2536 514.813 30.6802C514.813 29.8269 514.813 28.9735 514.813 28.1202C513.519 28.1202 512.226 28.1202 510.946 28.1202C514.359 34.2802 500.76 37.1736 499.333 30.6802C502.373 29.5069 505.293 27.6536 504.493 24.2936C497.866 24.3336 494.853 16.9202 486.426 20.4535C487.133 23.7335 492.106 22.9336 495.453 23.0136C490.546 28.9602 486.826 27.6002 481.266 26.2002C477.013 27.2935 475.559 17.1602 470.946 19.1735C471.813 20.0269 472.666 20.8802 473.533 21.7336C472.24 21.7336 470.946 21.7336 469.653 21.7336C469.653 22.5869 469.653 23.4402 469.653 24.2936C465.506 24.3336 459.613 25.0269 459.333 20.4535C454.266 23.4269 450.853 21.3869 447.079 19.1735C439.759 23.3469 424.96 26.3069 418.053 29.4002C417.04 32.7602 424.013 33.4002 427.079 34.5202C424.933 34.5202 422.773 34.5202 420.626 34.5202C421.92 36.2269 423.213 37.9202 424.506 39.6269C418.306 41.3336 410.866 39.9202 403.853 38.3469C406.013 37.0802 408.16 35.8002 410.306 34.5202C406.466 23.5202 394.88 28.7736 388.373 23.0136C386.16 27.1869 389.4 29.6936 393.533 30.6802C392.68 31.9602 391.813 33.2402 390.96 34.5202C385.786 26.5069 357.373 17.8802 356.12 30.6802C353.72 27.3736 349.88 26.4002 345.8 26.8535C345.213 29.6802 346.853 31.5602 349.666 31.9602C347.04 35.4669 347.586 39.6269 349.666 43.4669C348.373 43.8935 347.093 44.3202 345.8 44.7469C347.946 45.6002 350.106 46.4535 352.253 47.3069C352.253 45.1735 352.253 43.0402 352.253 40.9069C353.533 40.9069 354.826 40.9069 356.12 40.9069C350.586 52.2135 361.173 56.3469 359.986 66.4802C361.28 66.4802 362.573 66.4802 363.866 66.4802C359.906 60.2002 365.453 56.1202 365.146 48.5735C364.293 48.5735 363.426 48.5735 362.573 48.5735C367.146 30.0802 369.72 56.0269 366.44 63.9202C373.853 62.6669 372.146 41.3202 380.64 43.4669C380.573 47.7202 381.6 54.8135 376.76 54.9735C377.626 57.1069 378.479 59.2269 379.346 61.3602C380.199 58.8002 381.066 56.2536 381.92 53.6936C387.04 56.3869 392.226 55.4135 396.12 51.1335C396.44 56.5069 385.866 63.6002 396.12 63.9202C396.12 63.0669 396.12 62.2136 396.12 61.3602C403.173 65.1336 412.759 63.2536 409.013 53.6936C408.893 62.6402 440.746 65.7068 434.826 54.9735C444.853 51.6402 449.306 64.2535 456.76 57.5335C453.853 55.6269 450.813 53.2669 451.586 49.8535C456.733 50.1202 460.933 53.5202 464.493 57.5335C465.786 56.2535 467.08 54.9736 468.373 53.6936C465.8 65.3602 487.333 61.6669 489.013 53.6936C497.266 60.0136 501.653 47.9735 510.946 56.2535C511.639 51.1602 503.666 49.6669 505.786 43.4669C510.64 46.2535 518.973 49.3869 517.386 54.9735C515.666 54.9735 513.946 54.9735 512.226 54.9735C515.106 63.4935 533.813 56.3335 522.546 49.8535C525.626 47.0802 534.586 47.4136 534.16 52.4136C535.88 51.5602 537.599 50.7069 539.319 49.8535C539.759 51.1335 540.186 52.4136 540.613 53.6936C542.333 51.5602 544.053 49.4269 545.773 47.3069C546.64 49.4269 547.493 51.5602 548.36 53.6936C552.24 51.8402 555.799 49.0936 554.813 44.7469C560.786 46.6936 563.386 54.6669 575.453 54.9735C575.453 51.1335 575.453 47.3069 575.453 43.4669C579.919 45.5335 580.613 49.6269 578.026 53.6936C580.92 51.9602 584.146 50.8136 587.066 52.4136C586.626 53.6936 586.2 54.9735 585.773 56.2535C608.24 56.1469 582.853 33.5069 594.8 33.2402C592.853 39.0802 602.866 43.5469 597.386 51.1335C602.466 52.2535 600.919 46.2135 607.053 48.5735C611.413 49.8935 612.2 48.7469 612.866 46.0269C619.706 51.6269 630.373 39.2669 629.64 33.2402C630.933 33.2402 632.213 33.2402 633.506 33.2402C630.92 38.3469 628.346 43.4669 625.76 48.5735C628.346 48.1602 630.92 47.7202 633.506 47.3069C633.506 48.5735 633.506 49.8535 633.506 51.1335C636.48 51.9335 637.493 47.4669 638.666 44.7469C638.666 45.6002 638.666 46.4535 638.666 47.3069C644.586 44.3602 650.96 54.1336 655.44 46.0269C656.306 54.8936 669.359 51.5202 667.053 43.4669C670.066 44.3202 673.066 45.1736 676.079 46.0269C672.906 41.3069 675.08 36.2136 678.666 31.9602C676.253 41.6002 685.733 46.2669 694.146 49.8535C696.079 47.6669 693.746 45.9202 691.56 44.7469C694.826 40.5736 693.52 29.0402 687.693 25.5735C696.733 21.3735 703.213 35.7469 712.2 33.2402C712.2 31.5335 712.2 29.8269 712.2 28.1202C716.026 27.1202 716.946 31.1202 717.36 34.5202C715.213 34.5202 713.066 34.5202 710.919 34.5202C706.759 45.7869 723.333 55.4402 730.266 47.3069C725.373 46.8802 716.173 41.8802 724.466 38.9869C729.613 41.5602 736.759 45.0669 745.746 43.4669C745.213 56.7069 757.839 43.3869 762.519 38.3469C760.799 37.9336 759.08 37.4936 757.36 37.0802C761.266 45.8269 745.48 42.8402 745.106 36.4402C744.133 31.4669 751.36 29.5469 749.626 24.2936C750.48 24.2936 751.346 24.2936 752.2 24.2936C751.346 21.7336 750.48 19.1736 749.626 16.6269C753.493 16.2002 757.36 15.7736 761.226 15.3469C761.226 16.6269 761.226 17.8935 761.226 19.1735C763.76 19.6669 766.56 17.1202 768.973 15.3469C769.76 18.9602 775.64 16.9602 779.293 16.6269C779.986 20.7736 779.426 29.6135 784.453 28.1202C783.559 38.2402 770.106 36.8269 771.546 44.7469C774.213 48.8002 786.333 41.9869 790.266 45.3869C800.44 49.3469 797.72 37.6136 794.773 31.9602C797.786 33.2402 800.799 34.5202 803.813 35.8002C801.813 31.5202 803.6 25.7735 808.973 26.8535C808.106 29.4002 807.253 31.9602 806.386 34.5202C816.586 30.2935 817.533 47.5069 827.026 46.0269C826.173 40.1069 824.746 31.3869 832.186 31.9602C831.333 35.8002 830.466 39.6269 829.613 43.4669C840.399 39.1335 846.799 45.1602 855.413 46.0269C855.413 44.7469 855.413 43.4669 855.413 42.1869C843.199 43.1335 849.653 34.3335 858 33.2402C857.533 36.4269 858.466 39.3069 861.866 39.6269C863.106 34.0402 863 20.0135 867.026 19.1735C868.213 23.0402 869.479 27.7869 873.479 28.1202C874.639 24.0402 875.653 18.1602 879.933 17.8936C876.92 16.6269 873.906 15.3469 870.893 14.0669C875.613 12.4002 882.759 10.5335 881.213 5.12021C882.533 9.22687 886.053 11.5869 890.253 12.7869C889.626 14.1602 889.066 15.4935 887.026 14.7069C878.8 14.4669 884.6 26.6402 878.64 29.4002C881.453 29.8002 883.093 31.6802 882.506 34.5202C889.573 31.6002 892.386 26.5602 893.479 20.4535C892.053 14.8935 898.4 17.4136 901.866 17.8936C900.133 19.6002 898.413 21.3069 896.693 23.0136C898.413 24.7202 900.133 26.4269 901.866 28.1202C905.946 21.7869 914.866 22.1336 914.76 30.6802C915.186 28.5469 915.626 26.4269 916.053 24.2936C917.773 24.7202 919.493 25.1469 921.213 25.5735C920.359 28.1202 919.493 30.6802 918.626 33.2402C920.346 32.8135 922.08 32.3869 923.8 31.9602C923.8 33.2402 923.8 34.5202 923.8 35.8002C920.96 35.2269 919.04 36.8002 918.626 39.6269C916.053 38.7736 913.466 37.9202 910.893 37.0802C911.746 35.3736 912.613 33.6669 913.466 31.9602C910.026 31.5336 906.586 31.1069 903.146 30.6802C903.693 33.1336 904.253 36.5335 907.026 35.8002C906.586 38.3469 906.16 40.9069 905.733 43.4669C909.746 43.0002 921.08 44.6536 922.506 39.6269C923.786 33.5202 933.413 34.9602 937.986 37.0802C933.893 31.6136 954.066 19.9336 950.893 14.0669C953.28 23.7336 968.706 15.0802 976.693 12.7869C977.56 18.4269 965.826 24.2802 971.533 30.6802C972.826 15.8669 996.56 0.333541 966.373 5.12021C963.213 7.82687 962.226 3.69357 963.786 1.28023C961.213 0.853567 958.626 0.426888 956.053 0.000221114C956.053 0.853554 956.053 1.70691 956.053 2.56025C949.586 2.42691 948.919 17.9736 939.279 15.3469C940.999 13.2136 942.72 11.0802 944.44 8.9469C938.066 -8.4931 920.8 9.44023 907.026 1.28023C907.68 5.37357 906.253 8.88023 901.866 8.9469C902.293 10.2269 902.719 11.5069 903.146 12.7869C901.866 12.7869 900.573 12.7869 899.279 12.7869C900.146 9.80021 901 6.82686 901.866 3.84019C896.266 5.54686 890.68 7.25357 885.093 8.9469C885.52 7.25357 885.946 5.54686 886.373 3.84019C883.546 4.41353 881.626 2.82689 881.213 0.000221114C879.013 4.33355 867.24 -1.26646 865.093 1.92021Z" fill="white"/>
</svg>
